<svg width="98" height="33" viewBox="0 0 98 33" fill="none" xmlns="http://www.w3.org/2000/svg">
<path d="M19.2395 20.3475C19.139 17.853 18.7368 15.2586 18.7368 12.764C18.7368 10.6686 19.139 8.57314 18.4352 6.57748C18.4352 6.37791 18.5358 6.17835 18.5358 5.879C18.7368 4.88117 15.4192 5.38008 14.9165 6.27813C14.6149 6.57748 14.4139 6.87683 14.5144 7.17618C14.5144 7.27596 14.6149 7.37574 14.6149 7.37574C14.0117 10.3692 13.1069 13.3627 12.1016 16.2564C11.6995 17.3541 11.2973 18.4517 10.8952 19.6491C10.292 18.6512 9.78931 17.5536 9.28664 16.456C7.97971 13.1632 6.7733 9.87032 5.16476 6.77704C5.36583 5.2803 2.14875 5.47986 1.44501 6.77704C0.640738 8.37357 0.741273 9.9701 1.04287 11.6664C1.34448 13.5623 1.34447 15.4582 1.44501 17.4538C1.44501 21.2456 1.74661 24.9376 1.84714 28.7293C1.54554 29.1285 1.44501 29.5276 1.74661 30.0265C1.94768 30.2261 2.04821 30.4256 2.24928 30.5254C3.15408 31.2239 5.5669 30.6252 5.5669 29.328C5.5669 25.4365 5.26529 21.5449 5.16476 17.6534C5.16476 17.2543 5.16476 16.8551 5.16476 16.5558C5.26529 16.6556 5.26529 16.8551 5.36583 16.9549C5.96903 18.4517 6.57223 19.9484 7.47704 21.3454C8.28131 22.7423 8.68344 24.2391 9.18611 25.7358C8.98505 25.9354 8.88451 26.135 8.98504 26.4343C8.98504 26.6339 9.08558 26.7337 9.18611 26.7337C9.78932 27.2326 10.8952 27.033 11.5989 26.7337C11.9005 26.6339 12.1016 26.5341 12.4032 26.3345C12.7048 26.135 13.2075 25.7358 13.1069 25.2369C13.1069 25.1371 13.0064 25.0373 13.0064 24.9376C13.4085 23.7402 13.7101 22.443 13.9112 21.2456C14.2128 19.8486 14.6149 18.6512 15.1176 17.3541C15.1176 17.9528 15.2181 18.5514 15.2181 19.1501C15.4192 21.5449 15.2181 23.9397 15.2181 26.3345C15.2181 27.1328 15.3187 27.8313 15.4192 28.6295C15.5197 28.9289 15.7208 30.3259 15.7208 30.4256C15.1176 30.9246 15.3187 31.623 16.1229 31.8226C17.0277 32.0222 18.1336 31.7228 18.7368 31.1241C19.8427 30.1263 19.34 28.43 19.0384 27.1328C18.7368 25.1371 19.34 22.6426 19.2395 20.3475Z" fill="white"/>
<path d="M27.1817 21.046C27.0811 19.1501 26.4779 17.3541 26.4779 15.4582C26.4779 13.2629 26.679 11.0677 26.3774 8.97228C26.2769 8.2738 22.5571 9.07206 22.6576 9.97011C22.9592 11.9658 22.8587 13.9614 22.8587 15.9571C22.8587 17.853 23.2608 19.6491 23.5624 21.5449C23.864 23.5406 23.4619 25.4365 23.663 27.4321C23.7635 28.3302 24.3667 30.0265 23.7635 30.8248C23.3614 31.3237 25.171 31.1241 25.2715 31.1241C25.9753 31.0243 26.9806 30.725 27.4833 30.1263C28.0865 29.328 27.6843 27.8313 27.5838 26.9332C27.0811 25.0373 27.2822 22.9419 27.1817 21.046Z" fill="white"/>
<path d="M42.7644 17.853C40.7537 15.2586 37.1345 17.1545 34.6212 16.3562C33.3142 15.9571 33.3142 14.161 33.3142 13.1632C33.3142 11.7662 33.2137 10.5688 33.0126 9.27162C32.9121 8.27379 33.0126 7.27596 33.7164 6.4777C33.8169 6.37791 34.5206 6.17835 34.5206 6.17835C34.8222 6.07856 35.1238 6.07856 35.526 6.07856C37.034 5.97878 39.9494 6.27813 39.3462 8.47336C39.0446 9.47119 42.7644 8.87249 43.066 7.87466C44.2724 3.4842 36.1292 4.38225 33.8169 4.98095C31.7057 5.57965 29.3934 6.77705 29.2929 9.17184C29.1923 10.3692 29.5945 11.4669 29.5945 12.5645C29.695 13.8616 29.3934 15.1588 29.8961 16.456C30.9014 19.2499 35.1238 17.9528 37.3356 18.1523C40.9548 18.4517 39.9495 23.341 39.9495 25.636C39.9495 26.8334 41.0553 28.9289 40.1505 29.9267C39.5473 30.5254 38.2404 30.6252 37.5366 30.6252C36.7324 30.725 35.4254 30.9246 34.9228 30.2261C34.018 28.9289 35.0233 26.6339 34.8222 25.1371C34.7217 24.2391 30.9014 25.0373 31.1025 26.135C31.4041 28.6295 29.7955 31.9224 33.4148 32.4213C35.727 32.7206 38.3409 32.2217 40.5527 31.5232C41.6585 31.1241 42.7644 30.6252 43.6692 29.8269C44.6745 28.9289 44.3729 27.6317 44.0713 26.4343C43.2671 23.4408 44.574 20.2478 42.7644 17.853Z" fill="white"/>
<path d="M59.3525 17.6534C59.252 14.0612 58.6488 10.5688 58.6488 6.97661C58.6488 5.08073 54.8285 5.77921 54.8285 7.27596C54.8285 10.6686 55.3311 14.0612 55.4317 17.4538C55.4317 17.5536 55.4317 17.5536 55.4317 17.6534C53.6221 17.6534 51.7119 17.853 49.8018 17.853C50.0028 13.4625 49.1986 9.07205 49.3996 4.78138C49.3996 4.18268 45.6799 4.6816 45.6799 5.77921C45.4788 9.9701 46.2831 14.2608 46.082 18.4517C45.9815 20.4473 45.881 22.443 45.881 24.5384C45.881 25.5363 46.082 26.6339 46.1826 27.6317C46.2831 28.5298 46.6852 29.8269 46.3836 30.725C46.1826 31.4235 49.8018 31.0243 50.1034 30.0265C50.606 28.3302 49.9023 26.2347 49.7012 24.5384C49.5002 22.9419 49.7012 21.2456 49.8018 19.5493C51.7119 19.4495 53.7226 19.2499 55.6327 19.5493C55.7333 20.8465 55.8338 22.1436 55.9343 23.4408C56.0349 24.5384 56.1354 25.636 56.1354 26.7337C56.1354 27.7315 56.2359 29.1285 55.9343 30.0265C55.2306 32.0222 58.9503 31.8226 59.453 30.3259C60.1568 28.5298 59.9557 26.3345 59.8552 24.5384C59.7546 22.3432 59.3525 19.9484 59.3525 17.6534Z" fill="white"/>
<path d="M75.4379 21.9441C74.5331 19.3497 73.1256 17.0547 72.0198 14.5601C73.0251 12.6642 73.9299 10.8682 74.8347 8.97227C75.639 7.27596 76.2422 5.38008 77.7502 4.18269C78.2529 3.78355 78.2529 3.38442 77.5491 3.28464C76.7448 3.18485 75.5384 3.4842 74.9352 3.98312C73.5278 5.08073 72.623 6.37791 71.9192 8.07423C71.0144 9.97011 70.1096 11.9658 69.1043 13.8616C69.0038 13.9614 69.0037 14.161 68.9032 14.2608C68.4005 14.5601 68.1995 14.9593 68.3 15.4582C67.4957 16.9549 66.792 18.4517 65.8872 19.8486C65.5856 14.5601 64.9824 9.37141 64.7813 4.0829C64.7813 2.88551 60.961 3.58399 61.0616 5.08073C61.2626 11.5666 62.268 18.0525 62.268 24.5384C61.9664 24.8378 62.0669 25.0374 62.3685 25.1371C62.3685 26.8334 62.268 28.43 62.1675 30.1263C61.7653 30.8248 62.5696 31.2239 63.1728 31.2239H63.2733C63.9771 31.2239 65.7867 30.9246 65.8872 29.9267C66.0883 27.9311 66.0883 25.9354 66.0883 23.9397C67.5963 22.3432 68.8027 20.5471 69.9086 18.6512C70.6123 20.0482 71.316 21.4452 71.8187 22.9419C72.623 25.5363 74.0304 27.9311 74.8347 30.5254C75.3374 32.2217 79.0571 31.2239 78.5545 29.5276C77.6497 26.9332 76.3427 24.5384 75.4379 21.9441Z" fill="white"/>
<path d="M97.8569 17.5536C97.6559 16.7554 96.55 16.7554 95.6452 16.8551C95.6452 16.5558 95.6452 16.2564 95.6452 15.8573C95.5446 13.3627 95.4441 10.7684 95.243 8.27379C95.042 5.97878 93.735 5.08073 91.4228 5.18052C89.1105 5.2803 86.3961 5.67943 84.2849 6.4777C81.7715 7.47553 80.364 9.27162 79.9619 11.866C79.4592 14.7597 80.163 17.7532 80.364 20.6469C80.4646 23.9397 80.4646 27.3324 80.4646 30.6252C80.4646 31.1241 84.1843 30.6252 84.1843 29.6274C84.1843 27.033 84.1843 24.3389 84.1843 21.7445C84.1843 20.9462 84.1843 20.2478 84.0838 19.4495C85.3907 18.8508 87.6025 19.4495 88.9094 19.5493C90.0153 19.6491 91.0206 19.3497 92.026 19.2499C92.026 21.4452 92.1265 23.6404 92.227 25.8356C92.227 26.9332 92.7297 29.2282 91.9254 30.1263C91.5233 30.6252 93.3329 30.4256 93.4334 30.4256C94.2377 30.3259 95.1425 30.0265 95.6452 29.4278C96.55 28.3302 96.0473 25.8356 96.0473 24.5384C95.9468 22.7423 95.9468 20.9462 95.9468 19.1501C96.8516 19.0504 98.058 18.3519 97.8569 17.5536ZM83.9833 17.3541C83.8827 16.1567 83.7822 14.9593 83.6817 13.7619C83.4806 11.5666 83.7822 8.47336 85.8934 7.17618C86.4966 6.77705 87.5019 6.87683 88.1051 6.77704C89.0099 6.57748 90.0153 6.37791 90.8196 6.97661C91.9254 7.77488 91.7244 10.469 91.7244 11.5666C91.7244 13.4625 91.9254 15.3584 92.026 17.2543C91.5233 17.3541 90.9201 17.3541 90.4174 17.3541C88.2057 17.2543 85.9939 16.9549 83.9833 17.3541Z" fill="white"/>
<path d="M23.9646 6.37791C24.4672 6.37791 24.9699 6.17835 25.372 5.879C25.4726 5.77921 25.5731 5.77922 25.5731 5.67943C26.0758 5.38008 26.4779 4.88117 26.2769 4.38225C25.7742 3.38442 25.8747 2.28681 25.8747 1.18919C25.8747 0.291145 24.9699 -0.00820416 24.1656 0.0915789C23.4619 0.191362 22.0544 0.690277 22.0544 1.48854C22.0544 2.38659 21.9539 3.38442 22.155 4.28247C22.155 4.38225 22.0544 4.48204 22.0544 4.58182C21.9539 4.78138 22.0544 4.98095 22.155 5.18052V5.2803C22.155 5.38008 22.155 5.47987 22.155 5.57965C22.2555 5.77922 22.356 5.97878 22.5571 6.07856C23.0598 6.37791 23.5624 6.37791 23.9646 6.37791Z" fill="white"/>
</svg>
